# xmcd
#
# Track frame offsets:
#	150
#	12642
#	27625
#	43020
#	53745
#	67147
#	81747
#	97445
#	111332
#	125835
#	136532
#	149397
#	162612
#	176632
#	190190
#	201012
#	214845
#	227657
#	241660
#	257982
#	269955
#	284430
#	293695
#
# Disc length: 4113 seconds
#
# Revision: 1
# Processed by: cddbd v1.5.1PL0 Copyright (c) Steve Scherf et al.
# Submitted via: audiograbber 1.82.02
#
DISCID=7d100f17
DTITLE=Buddy Williams - Regal Zonophone Collection CD 3
DYEAR=1900
DGENRE=Country
TTITLE0=Back Street Affair
TTITLE1=Christmas Bells
TTITLE2=Dear Old Dorringo
TTITLE3=Spirit Of Progress
TTITLE4=The Swagman's Friends
TTITLE5=The Old Sundowner
TTITLE6=Australia's Kitty Grill
TTITLE7=Honeymoon On A Rocket Ship
TTITLE8=The Kelly Gang
TTITLE9=I'd Rather Have A Pony Than A Girl
TTITLE10=Away Out On The Plain
TTITLE11=A Yellow Dogs Love
TTITLE12=Our Wedding
TTITLE13=Little Red Bonnet
TTITLE14=Kings Cross Boogie
TTITLE15=The Ringer
TTITLE16=Mareeba Rodeo
TTITLE17=Poison Darts
TTITLE18=I'll Stay Down Memory Lane With You
TTITLE19=My Sleepy Valley Home
TTITLE20=Back To Alice Springs
TTITLE21=The Rule Of Love
TTITLE22=Horse Teams
EXTD=
EXTT0=
EXTT1=
EXTT2=
EXTT3=
EXTT4=
EXTT5=
EXTT6=
EXTT7=
EXTT8=
EXTT9=
EXTT10=
EXTT11=
EXTT12=
EXTT13=
EXTT14=
EXTT15=
EXTT16=
EXTT17=
EXTT18=
EXTT19=
EXTT20=
EXTT21=
EXTT22=
PLAYORDER=
